<?xml version="1.0" encoding="utf-8"?>
<!-- Generator: Adobe Illustrator 27.4.1, SVG Export Plug-In . SVG Version: 6.00 Build 0)  -->
<svg version="1.1" id="Layer_1" xmlns="http://www.w3.org/2000/svg" xmlns:xlink="http://www.w3.org/1999/xlink" x="0px" y="0px"
	 viewBox="0 0 500 500" style="enable-background:new 0 0 500 500;" xml:space="preserve">
<style type="text/css">
	.st0{fill:none;stroke:#00002F;stroke-width:12;stroke-miterlimit:10;}
</style>
<path class="st0" d="M165.4,454.3l18.4-190.9c0.3-3.4-1.2-6.8-4.1-8.7L21,147.1c-8-5.4-3.6-17.9,6.1-17.1l347.8,29.4
	c7.2,0.6,11,8.8,6.9,14.7L182.4,460.6C176.9,468.5,164.4,464,165.4,454.3z"/>
<path class="st0" d="M265,409.2l18.4-190.9c0.3-3.4-1.2-6.8-4.1-8.7L120.7,102c-8-5.4-3.6-18,6.1-17.1l347.8,29.4
	c7.2,0.6,11,8.8,6.9,14.7L282.1,415.5C276.5,423.4,264.1,418.9,265,409.2z"/>
</svg>
